<svg width="23" height="20" viewBox="0 0 23 20" fill="none" xmlns="http://www.w3.org/2000/svg">
<path d="M8.4999 1.5V18.5M1.9639 7.344C1.7159 7.344 1.4889 7.142 1.4999 6.879C1.5669 5.337 1.7549 4.333 2.2799 3.539C2.57936 3.08653 2.9549 2.68933 3.3899 2.365C4.5549 1.5 6.1999 1.5 9.4919 1.5H13.5059C16.7979 1.5 18.4429 1.5 19.6099 2.365C20.0409 2.685 20.4169 3.082 20.7189 3.539C21.2439 4.333 21.4319 5.337 21.4989 6.879C21.5099 7.142 21.2829 7.344 21.0339 7.344C19.6479 7.344 18.5239 8.533 18.5239 10C18.5239 11.467 19.6479 12.656 21.0339 12.656C21.2829 12.656 21.5099 12.858 21.4989 13.122C21.4319 14.663 21.2439 15.667 20.7189 16.462C20.4193 16.9141 20.0438 17.311 19.6089 17.635C18.4429 18.5 16.7979 18.5 13.5059 18.5H9.4929C6.2009 18.5 4.5559 18.5 3.3889 17.635C2.95426 17.3106 2.57906 16.9134 2.2799 16.461C1.7549 15.667 1.5669 14.663 1.4999 13.121C1.4889 12.858 1.7159 12.656 1.9639 12.656C3.3499 12.656 4.4739 11.467 4.4739 10C4.4739 8.533 3.3499 7.344 1.9639 7.344Z" stroke="white" stroke-width="1.5" stroke-linecap="round" stroke-linejoin="round"/>
</svg>
